# xmcd
#
# Track frame offsets:
# 150
# 17829
# 59353
# 84099
# 108324
# 126540
# 153969
# 164090
# 204099
# 229878
# 240708
# 265729
# 290784
# 336248
#
# Disc length: 4638 seconds
#
#
# Revision: 0
# Processed by: cddbd v1.5.2PL0 Copyright (c) Steve Scherf et al.
# Submitted via: FreeRIP 2.96 
#
DISCID=c5121c0e
DTITLE=Michael Connelly - Das zweite Herz CD5v6
DYEAR=2007
DGENRE=Speech
TTITLE0=49 Das zweite Herz
TTITLE1=50 Das zweite Herz
TTITLE2=51 Das zweite Herz
TTITLE3=52 Das zweite Herz
TTITLE4=53 Das zweite Herz
TTITLE5=54 Das zweite Herz
TTITLE6=55 Das zweite Herz
TTITLE7=56 Das zweite Herz
TTITLE8=57 Das zweite Herz
TTITLE9=58 Das zweite Herz
TTITLE10=59 Das zweite Herz
TTITLE11=60 Das zweite Herz
TTITLE12=61 Das zweite Herz
TTITLE13=62 Das zweite Herz
EXTD=gelesen von Engelbert von Nordhausen
EXTT0=
EXTT1=
EXTT2=
EXTT3=
EXTT4=
EXTT5=
EXTT6=
EXTT7=
EXTT8=
EXTT9=
EXTT10=
EXTT11=
EXTT12=
EXTT13=
PLAYORDER=
